<svg xmlns="http://www.w3.org/2000/svg" viewBox="0 0 918.08 999.89"><defs><style>.cls-1{fill:none;stroke:#000;stroke-miterlimit:10;stroke-width:30px;}</style></defs><g id="Layer_2" data-name="Layer 2"><g id="Layer_1-2" data-name="Layer 1"><path d="M861.25,125a16.85,16.85,0,0,1,16.83,16.83V943.06a16.85,16.85,0,0,1-16.83,16.83H60a16.85,16.85,0,0,1-16.83-16.83V598.53A16.85,16.85,0,0,1,60,581.7h0l343.47.64h.18a96.84,96.84,0,0,0,96.83-97l-.64-343.47A16.83,16.83,0,0,1,516.72,125H861.25m0-40H516.72a56.84,56.84,0,0,0-56.83,56.94l.64,343.47a56.83,56.83,0,0,1-56.83,56.94h-.11L60.12,541.7H60A56.84,56.84,0,0,0,3.18,598.53V943.06A56.83,56.83,0,0,0,60,999.89H861.25a56.83,56.83,0,0,0,56.83-56.83V141.82A56.83,56.83,0,0,0,861.25,85Z"/><path d="M125.41,329.21,97.83,356.79v89.42H0V0H97.83V236.89l9.88-13.06,73.73-91.74H298.73l-110,129.19L306,446.21H193.93Z"/><path class="cls-1" d="M744.7,566.61V711.34a72.55,72.55,0,0,1-72.55,72.55H239.76"/><polyline class="cls-1" points="314.1 855.43 236.33 784.15 314.1 710.7"/></g></g></svg>